<svg width="650" height="489" viewBox="0 0 650 489" fill="none" xmlns="http://www.w3.org/2000/svg">
<g clip-path="url(#clip0)">
<path opacity="0.5" fill-rule="evenodd" clip-rule="evenodd" d="M642.652 488.61H0.939556C-7.18536 379.19 100.692 310.24 159.302 272.779C166.916 267.913 173.698 263.578 179.287 259.755C203.782 242.996 221.947 206.402 241.266 167.481C276.857 95.7765 316.366 16.1793 406.602 38.1936C485.937 57.5986 605.171 140.166 650 263.688V468.842C647.776 475.38 645.329 481.971 642.652 488.61Z" fill="url(#paint0_linear)"/>
<path d="M353.132 344.248C259.91 344.248 184.339 351.871 184.339 361.276C184.339 370.68 259.91 378.303 353.132 378.303C446.354 378.303 521.925 370.68 521.925 361.276C521.925 351.871 446.354 344.248 353.132 344.248Z" fill="#F0F0F5"/>
<path d="M505.919 295.252C505.919 295.252 481.971 363.538 479.405 363.538C476.839 363.538 425.522 379.756 470.853 359.27C470.853 359.27 475.984 285.009 483.682 281.594C491.379 278.181 505.919 295.252 505.919 295.252Z" fill="#965450"/>
<path d="M487.958 344.418C495.741 324.188 505.92 295.252 505.92 295.252C505.92 295.252 491.379 278.181 483.682 281.594C478.721 283.814 474.787 315.738 472.649 337.93C477.78 339.98 482.826 342.198 487.958 344.418Z" fill="#76413B"/>
<path d="M463.411 362.941C463.411 362.941 461.444 367.465 480.26 362.684L479.405 365.245C479.405 365.245 426.378 377.708 463.411 362.941Z" fill="#051F38"/>
<path d="M491.379 266.316C491.379 266.316 528.413 328.542 526.788 330.505C525.163 332.468 504.636 382.146 517.978 334.261C517.978 334.261 464.267 282.619 466.576 274.51C468.971 266.487 491.379 266.316 491.379 266.316Z" fill="#965450"/>
<path d="M516.097 342.284C516.097 342.284 518.321 346.722 526.703 329.224L528.157 331.529C528.071 331.529 503.61 380.183 516.097 342.284Z" fill="#051F38"/>
<path d="M512.933 303.361C503.011 285.862 491.379 266.316 491.379 266.316C491.379 266.316 468.971 266.487 466.576 274.51C465.036 279.717 487.103 303.275 502.755 319.152C502.84 319.237 508.913 312.495 512.933 303.361Z" fill="#76413B"/>
<path d="M514.899 172.764C514.899 172.764 492.233 147.583 478.977 163.374C465.72 179.165 445.193 231.233 448.186 252.573C449.983 265.121 462.042 278.522 471.707 287.484L463.582 333.236C463.582 333.236 496.937 342.198 494.799 342.198C493.516 342.198 527.728 250.44 531.149 221.418C534.571 192.396 514.899 172.764 514.899 172.764Z" fill="#6633CC"/>
<path opacity="0.2" d="M497.538 178.398C503.867 178.312 510.795 177.458 516.867 174.983C515.67 173.532 514.9 172.764 514.9 172.764C514.9 172.764 492.235 147.583 478.978 163.374C476.925 165.85 474.701 169.093 472.478 173.02C479.919 177.117 489.327 178.568 497.538 178.398Z" fill="#352C38"/>
<path opacity="0.2" d="M463.582 190.603C454.174 212.028 446.221 238.66 448.188 252.488C449.898 264.95 461.872 278.266 471.536 287.228C474.958 264.011 481.201 231.746 484.965 213.138C475.642 207.846 467.944 200.249 463.582 190.603Z" fill="#352C38"/>
<path d="M449.471 122.402L435.786 148.863C435.786 148.863 411.838 135.633 408.416 135.633C404.995 135.633 388.745 136.06 396.442 139.474C396.442 139.474 393.021 141.607 396.87 142.461C396.87 142.461 393.449 145.449 397.725 145.875L407.561 145.449C407.561 145.449 427.233 163.374 437.069 165.934C446.905 168.495 462.728 135.206 462.728 135.206L449.471 122.402Z" fill="#965450"/>
<path d="M451.695 141.352C453.833 142.121 456.056 142.889 458.28 143.657C461.017 138.877 462.728 135.121 462.728 135.121L449.471 122.318L441.944 136.828C444.938 138.706 448.273 140.157 451.695 141.352Z" fill="#76413B"/>
<path d="M466.576 109.599C466.576 109.599 453.747 107.465 449.042 114.294C444.338 121.122 442.2 132.219 442.2 132.219L460.589 141.182L466.576 109.599Z" fill="#34CB79"/>
<path opacity="0.1" d="M459.477 133.756C454.773 130.085 449.385 125.476 445.879 119.927C443.313 125.902 442.115 132.134 442.115 132.134L460.504 141.096L461.616 135.292C460.931 134.865 460.162 134.353 459.477 133.756Z" fill="#161826"/>
<path d="M376.599 132.475C377.112 133.841 376.343 135.377 374.974 135.889L364.882 139.56C363.514 140.072 361.974 139.304 361.461 137.938L357.441 126.756C356.928 125.39 357.698 123.854 359.066 123.342L369.158 119.671C370.527 119.16 372.066 119.927 372.579 121.293L376.599 132.475Z" fill="#23173B"/>
<path d="M384.724 124.11L353.079 135.463C347.52 137.425 344.698 143.572 346.665 149.119L356.415 176.178C358.382 181.726 364.54 184.543 370.099 182.58L401.745 171.228C407.304 169.264 410.127 163.118 408.16 157.57L398.409 130.512C396.357 124.964 390.284 122.062 384.724 124.11ZM405.081 160.046C405.85 162.265 404.738 164.74 402.515 165.509L388.915 127.951C391.139 127.183 393.62 128.293 394.389 130.512L405.081 160.046Z" fill="#322153"/>
<path d="M374.547 121.122C374.974 122.318 374.376 123.683 373.178 124.11L358.81 129.317C357.612 129.744 356.244 129.146 355.816 127.951L354.619 124.622C354.191 123.427 354.79 122.062 355.987 121.634L370.356 116.428C371.553 116.001 372.922 116.599 373.349 117.794L374.547 121.122Z" fill="#6633CC"/>
<path d="M394.731 137.34C394.731 137.34 400.12 135.463 401.061 136.572C401.916 137.596 396.528 139.133 396.784 139.218C396.955 139.304 402.6 138.024 403.113 139.218C403.627 140.413 397.126 142.547 397.126 142.547C397.126 142.547 403.284 140.84 403.712 142.121C404.14 143.401 397.297 145.279 397.297 145.279L396.955 142.462L396.528 139.218L394.731 137.34Z" fill="#965450"/>
<path d="M402.344 135.889C402.344 135.889 398.153 133.072 398.153 132.134C398.067 131.109 409.272 135.804 409.272 135.804L402.344 135.889Z" fill="#965450"/>
<path d="M484.964 107.465C484.109 109.002 488.3 73.2369 488.3 73.2369L468.885 86.2968C468.885 86.2968 470.596 109.173 468.457 109.258C467.602 109.258 464.267 110.538 460.589 111.904C461.444 116.172 463.155 117.11 464.609 121.208C475.471 121.123 487.274 120.867 493.945 110.965C490.096 109.685 486.076 105.331 484.964 107.465Z" fill="#76413B"/>
<path d="M466.576 109.599L465.721 106.612L487.103 101.917L487.958 107.038C487.958 107.038 513.617 115.574 517.038 134.779C520.459 153.985 518.749 166.362 514.9 172.764C514.9 172.764 484.964 177.032 472.135 170.63C459.306 164.228 446.049 116.428 452.892 112.16C459.734 107.892 466.576 109.599 466.576 109.599Z" fill="#34CB79"/>
<path opacity="0.1" d="M494.544 162.777C484.28 162.179 471.708 160.985 463.155 154.668C461.53 153.473 460.076 152.193 458.708 150.742C462.556 160.216 467.346 168.24 472.135 170.63C484.965 177.032 514.9 172.764 514.9 172.764C516.611 169.947 517.894 165.935 518.492 160.643C510.795 162.948 502.755 163.289 494.544 162.777Z" fill="#161826"/>
<path d="M493.517 148.01L515.327 146.303C515.327 146.303 509.768 184.713 503.353 197.944C496.939 211.174 467.431 263.243 478.977 234.221C478.977 234.221 464.01 256.841 476.839 233.794C476.839 233.794 462.727 252.146 475.128 232.514C475.128 232.514 460.589 249.159 475.984 225.685C475.984 225.685 464.437 231.233 477.267 221.844L489.669 189.408L493.517 148.01Z" fill="#965450"/>
<path d="M514.814 149.376C515.157 147.412 515.328 146.217 515.328 146.217L493.517 147.925L493.346 150.144C500.445 150.144 507.63 149.803 514.814 149.376Z" fill="#76413B"/>
<path d="M470.681 50.2756C470.681 50.2756 481.544 43.9592 497.452 54.3728C507.972 61.2868 507.459 83.3947 484.708 97.905C457.682 115.148 470.681 50.2756 470.681 50.2756Z" fill="#051F38"/>
<path d="M485.735 62.055C485.735 62.055 473.504 52.5803 463.07 57.1896C449.899 63.1647 451.267 77.0776 451.01 88.9426C450.668 104.734 463.155 107.722 466.919 107.892C472.478 108.233 495.143 106.868 485.735 62.055Z" fill="#965450"/>
<path d="M486.932 76.8221C486.932 76.8221 487.445 74.4317 491.551 76.3098C496.768 78.7847 493.946 91.2473 488.129 90.906C482.228 90.6498 486.932 76.8221 486.932 76.8221Z" fill="#965450"/>
<path d="M486.931 76.8221C486.931 76.8221 487.616 85.3573 485.648 85.4432C483.596 85.5283 481.457 69.9932 487.102 69.9932C492.747 70.1639 486.931 76.8221 486.931 76.8221Z" fill="#051F38"/>
<path d="M486.932 76.8221C486.932 76.8221 482.741 57.8725 457.852 61.0307C457.852 61.0307 461.444 53.946 469.313 50.6171C480.004 46.0931 495.998 64.2743 491.55 76.3098C491.55 76.3098 489.498 76.566 486.932 76.8221Z" fill="#34CB79"/>
<path d="M497.452 59.3235C497.452 59.3235 496.083 36.7038 501.557 36.7038C507.031 36.7038 501.129 55.7385 501.129 55.7385C501.129 55.7385 505.663 28.5095 518.834 32.6066C532.006 36.7038 509.255 55.7385 509.255 55.7385C509.255 55.7385 519.689 46.1785 523.367 49.4221C526.959 52.5803 508.399 58.9821 508.399 58.9821C508.399 58.9821 522.512 54.8849 524.308 61.7136C526.104 68.4568 497.024 67.5179 497.452 59.3235Z" fill="#051F38"/>
<path d="M451.694 72.469C451.694 72.469 451.694 72.2983 451.865 71.9569C452.036 71.6154 452.207 71.1886 452.635 70.7618C453.063 70.335 453.576 69.8229 454.26 69.4814C454.431 69.3961 454.602 69.3107 454.859 69.2254C455.03 69.14 455.287 69.0547 455.458 69.0547C455.714 69.0547 455.885 68.9693 456.142 68.9693H456.826C457.254 68.9693 457.681 69.14 458.109 69.3107C458.537 69.4814 458.879 69.6522 459.221 69.9082C459.563 70.1643 459.819 70.4204 460.076 70.6765C460.333 70.9325 460.504 71.1886 460.589 71.4447C460.675 71.5301 460.76 71.7008 460.76 71.7861C460.846 71.8715 460.846 72.0422 460.931 72.1276C461.017 72.3836 461.102 72.5544 461.102 72.7251C461.188 73.0664 461.188 73.2372 461.188 73.2372C461.188 73.2372 461.017 73.1518 460.675 73.0665C460.504 72.9812 460.333 72.8957 460.162 72.8104C459.991 72.7251 459.734 72.6397 459.477 72.469C459.221 72.3836 459.05 72.2129 458.793 72.1276C458.537 72.0422 458.28 71.9569 458.023 71.8715C457.767 71.7861 457.51 71.7008 457.254 71.6154C456.997 71.6154 456.74 71.5301 456.484 71.5301H456.142C456.056 71.5301 455.885 71.5301 455.714 71.5301C455.458 71.5301 455.201 71.6154 454.944 71.6154C454.688 71.7008 454.431 71.7008 454.175 71.7861C453.918 71.8715 453.661 71.8715 453.405 71.9569C452.892 72.1276 452.464 72.2129 452.207 72.2983C451.951 72.469 451.694 72.469 451.694 72.469Z" fill="#051F38"/>
<path d="M458.28 95.9416C458.28 95.9416 472.306 96.3688 473.247 96.1978C474.102 96.0275 465.379 102.856 458.28 95.9416Z" fill="white"/>
<path d="M459.221 80.3216C459.221 80.3216 459.22 80.4919 459.135 80.8339C459.049 81.1752 458.964 81.6016 458.793 82.1991C458.707 82.4552 458.622 82.7965 458.451 83.0527C458.365 83.2237 458.28 83.3947 458.194 83.4798C458.109 83.6501 457.938 83.8211 457.852 83.9063C457.596 84.1624 457.339 84.5037 456.911 84.6747C456.826 84.7598 456.74 84.7599 456.569 84.8457L456.313 84.9309C456.142 85.016 455.885 85.016 455.628 85.016C455.201 85.016 454.688 84.9309 454.346 84.5896C454.003 84.3334 453.747 83.9921 453.576 83.565C453.405 83.2237 453.319 82.8824 453.234 82.5411C453.148 82.1991 453.148 81.8578 453.148 81.6016C453.148 81.0042 453.148 80.5778 453.234 80.2365C453.319 79.8945 453.405 79.7242 453.405 79.7242C453.405 79.7242 453.405 80.4919 453.661 81.6016C453.747 82.1139 453.918 82.7965 454.26 83.3088C454.431 83.565 454.602 83.8211 454.859 83.9921C455.115 84.1624 455.372 84.2483 455.628 84.2483C455.799 84.2483 455.885 84.2483 456.056 84.1624L456.313 84.0773C456.313 84.0773 456.398 83.9921 456.484 83.9921C456.74 83.9063 456.997 83.6501 457.253 83.4798C457.51 83.2237 457.681 82.9675 457.852 82.7114C458.023 82.4552 458.194 82.1991 458.28 81.9429C458.536 81.4314 458.707 81.0042 458.878 80.7481C459.135 80.4919 459.221 80.3216 459.221 80.3216Z" fill="#1F2733"/>
<path d="M473.332 81.4314C473.332 81.4314 473.332 81.6017 473.247 81.9429C473.161 82.285 473.076 82.7114 472.905 83.3088C472.819 83.565 472.734 83.9063 472.563 84.1624C472.477 84.3334 472.392 84.5037 472.306 84.5896C472.221 84.7599 472.05 84.9309 471.964 85.016C471.707 85.2722 471.451 85.6134 471.023 85.7845C470.938 85.8696 470.852 85.8696 470.681 85.9555L470.424 86.0406C470.253 86.1257 469.997 86.1257 469.74 86.1257C469.313 86.1257 468.8 86.0406 468.457 85.6993C468.115 85.4432 467.859 85.1019 467.688 84.6747C467.517 84.3334 467.431 83.9921 467.346 83.6501C467.26 83.3088 467.26 82.9675 467.26 82.7114C467.26 82.114 467.26 81.6875 467.346 81.3455C467.431 81.0042 467.517 80.8339 467.517 80.8339C467.517 80.8339 467.517 81.6017 467.773 82.7114C467.859 83.2237 468.03 83.9063 468.372 84.4186C468.543 84.6747 468.714 84.9309 468.971 85.1019C469.227 85.2722 469.484 85.3573 469.74 85.3573C469.911 85.3573 469.997 85.3573 470.168 85.2722L470.424 85.187C470.424 85.187 470.51 85.1019 470.596 85.1019C470.852 85.016 471.109 84.7599 471.365 84.5896C471.622 84.3334 471.793 84.0773 471.964 83.8211C472.135 83.565 472.306 83.3088 472.392 83.0527C472.648 82.5411 472.819 82.114 472.99 81.8578C473.247 81.6017 473.332 81.4314 473.332 81.4314Z" fill="#1F2733"/>
<path d="M488.899 88.5162C489.155 88.1742 489.326 87.918 489.497 87.5768C489.668 87.2355 489.754 86.8942 489.839 86.5529C489.839 86.3819 489.839 86.2109 489.839 86.0406C489.839 85.9555 489.754 85.8696 489.754 85.8696C489.754 85.7844 489.668 85.6993 489.583 85.6993C489.497 85.6134 489.497 85.6134 489.412 85.5283L489.241 85.3573C489.155 85.2721 489.07 85.2721 488.984 85.2721L488.728 85.187L488.557 85.1019V84.9309C488.3 83.9921 488.214 83.1385 488.129 82.1991C488.043 81.7727 488.043 81.2604 488.129 80.8339C488.129 80.3216 488.214 79.8945 488.386 79.3829C488.471 79.1268 488.642 78.8706 488.899 78.6996C489.155 78.5293 489.497 78.3583 489.754 78.4434C490.096 78.4434 490.267 78.5293 490.524 78.6145C490.78 78.6996 491.037 78.7855 491.208 78.9557C491.379 79.1268 491.636 79.297 491.721 79.4681C491.892 79.6391 491.978 79.8945 492.063 80.0655C492.234 80.4919 492.32 81.0042 492.234 81.4314C492.149 81.0042 492.063 80.5778 491.807 80.1506C491.721 79.9803 491.55 79.8093 491.379 79.6383C491.208 79.468 491.037 79.3829 490.866 79.297C490.695 79.2119 490.524 79.1268 490.267 79.1268C490.096 79.1268 489.84 79.0409 489.668 79.0409C489.326 79.0409 489.155 79.297 489.07 79.6383C488.813 80.4068 488.899 81.2604 488.899 82.1139C488.984 82.9675 489.07 83.9063 489.241 84.7598L489.07 84.5044L489.326 84.6747C489.412 84.7598 489.497 84.7599 489.583 84.8457L489.839 85.016C489.925 85.1019 490.011 85.187 490.096 85.2721C490.182 85.358 490.267 85.4432 490.267 85.6134C490.353 85.6993 490.353 85.8696 490.353 85.9555C490.438 86.2109 490.353 86.3819 490.353 86.638C490.267 87.0645 490.01 87.4065 489.754 87.7478C489.497 88.0039 489.155 88.3452 488.899 88.5162Z" fill="#76413B"/>
<path d="M460.504 92.1008C460.076 92.186 459.734 92.186 459.392 92.186C459.05 92.186 458.707 92.1008 458.451 92.0157C458.109 91.9298 457.852 91.7596 457.596 91.6744C457.425 91.5886 457.339 91.5034 457.168 91.4183C456.997 91.3324 456.911 91.2473 456.74 91.1621L456.227 90.735L456.313 90.3937C457.168 87.918 458.023 85.5283 458.878 83.1386C459.734 80.7481 460.675 78.2732 461.615 75.8827C461.017 78.3583 460.333 80.9191 459.734 83.3947C459.05 85.8696 458.365 88.3452 457.681 90.8208L457.339 90.0524C457.51 90.0524 457.681 90.1375 457.852 90.1375C458.023 90.1375 458.194 90.2227 458.28 90.3085C458.536 90.3937 458.879 90.5647 459.135 90.735C459.392 90.906 459.648 91.1621 459.905 91.4183C460.076 91.5034 460.332 91.7596 460.504 92.1008Z" fill="#76413B"/>
<path d="M465.55 71.4443C465.55 71.4443 465.635 71.1883 465.892 70.9322C466.063 70.7615 466.148 70.5907 466.405 70.3347C466.662 70.1639 466.833 69.9079 467.175 69.7371C467.431 69.5664 467.774 69.3104 468.201 69.1396C468.543 68.9689 468.971 68.7982 469.399 68.6275C469.826 68.5421 470.339 68.3714 470.852 68.3714C471.109 68.3714 471.366 68.3714 471.622 68.3714L472.392 68.4568C472.905 68.4568 473.418 68.7128 473.846 68.7982C474.274 68.9689 474.701 69.225 475.129 69.3957C475.556 69.6518 475.899 69.9079 476.155 70.1639C476.497 70.42 476.754 70.7615 476.925 71.0175C477.181 71.2736 477.352 71.5297 477.523 71.7858C477.694 72.0418 477.78 72.2979 477.866 72.4686C478.037 72.8101 478.122 73.0661 478.122 73.0661C478.122 73.0661 477.866 72.9808 477.523 72.8101C477.352 72.7247 477.096 72.6393 476.839 72.4686C476.583 72.2979 476.326 72.2126 475.984 72.1272C475.727 72.0418 475.385 71.8711 475.043 71.7004C474.701 71.615 474.359 71.4443 474.017 71.359C473.675 71.2736 473.333 71.1883 472.991 71.1029C472.648 71.1029 472.306 70.9322 471.879 70.9322L471.366 70.8468H470.852C470.51 70.8468 470.083 70.8468 469.741 70.8468C469.398 70.8468 469.056 70.8468 468.714 70.9322C468.372 70.9322 468.03 71.0175 467.688 71.0175C467.089 71.1029 466.491 71.1883 466.148 71.2736C465.806 71.4443 465.55 71.4443 465.55 71.4443Z" fill="#051F38"/>
<path d="M453.747 363.367C453.747 366.44 451.267 369.001 448.188 369.086C445.109 369.086 442.543 366.611 442.457 363.538L442.201 345.442C442.201 342.369 444.681 339.809 447.76 339.723C450.839 339.723 453.405 342.198 453.49 345.271L453.747 363.367Z" fill="#091E1D"/>
<path d="M374.974 364.307C374.974 367.38 372.494 369.94 369.415 370.026C366.336 370.026 363.771 367.551 363.685 364.478L363.428 346.382C363.428 343.309 365.909 340.748 368.988 340.663C372.067 340.663 374.632 343.139 374.718 346.211L374.974 364.307Z" fill="#091E1D"/>
<path d="M447.418 350.478C447.503 357.478 441.858 363.197 434.845 363.282L382.159 363.879C375.145 363.965 369.415 358.331 369.329 351.332L363.685 231.661C363.599 224.662 369.244 218.943 376.257 218.857L437.411 218.089C444.424 218.003 450.155 223.637 450.24 230.636L447.418 350.478Z" fill="#34CB79"/>
<path opacity="0.1" d="M449.898 242.671L450.155 230.807C450.069 223.808 444.339 218.174 437.325 218.259L376.172 219.028C369.159 219.113 363.514 224.832 363.599 231.832L364.198 243.696L449.898 242.671Z" fill="#161826"/>
<path d="M460.333 227.82C460.333 229.782 458.793 231.319 456.826 231.404L356.928 232.599C354.961 232.599 353.422 231.063 353.336 229.1L353.165 216.467C353.165 214.504 354.704 212.968 356.672 212.882L456.569 211.687C458.537 211.687 460.076 213.224 460.162 215.186L460.333 227.82Z" fill="#34CB79"/>
<path d="M407.304 262.901L418.936 255.902L416.114 263.157L407.304 262.901Z" fill="white"/>
<path d="M402.943 251.891C402.943 251.891 403.884 251.891 405.338 254.109C406.792 256.329 410.042 262.304 410.042 262.304L415.943 259.658L417.312 257.353C417.312 257.353 414.746 252.232 412.693 251.891H402.943Z" fill="white"/>
<path d="M399.692 253.427C399.692 253.427 401.488 251.463 402.942 252.488C404.396 253.513 406.962 257.781 406.962 257.781L402.771 265.121L395.245 260.939L399.692 253.427Z" fill="white"/>
<path d="M412.608 272.035L413.206 285.521L408.16 279.632L412.608 272.035Z" fill="white"/>
<path d="M424.411 273.401C424.411 273.401 423.983 274.254 421.331 274.51C418.68 274.766 411.838 274.766 411.838 274.766L411.324 281.253L412.693 283.558C412.693 283.558 418.423 283.814 419.706 282.107L424.411 273.401Z" fill="white"/>
<path d="M424.496 269.815C424.496 269.815 425.437 272.291 423.812 273.144C422.272 273.913 417.226 274.083 417.226 274.083L412.693 266.913L419.963 262.219L424.496 269.815Z" fill="white"/>
<path d="M402.343 271.864L390.369 265.547L398.067 264.182L402.343 271.864Z" fill="white"/>
<path d="M395.245 281.339C395.245 281.339 394.732 280.57 395.844 278.181C396.955 275.79 400.377 269.901 400.377 269.901L395.074 266.23L392.422 266.316C392.422 266.316 389.343 271.181 390.113 273.059L395.245 281.339Z" fill="white"/>
<path d="M398.238 283.216C398.238 283.216 395.587 282.704 395.758 280.997C395.844 279.205 398.238 274.852 398.238 274.852L406.706 274.595L407.048 283.216H398.238Z" fill="white"/>
<path d="M223.759 329.566C223.759 329.566 221.878 359.697 220.253 360.295C214.009 362.428 166.883 374.379 211.443 354.32L210.246 332.382L223.759 329.566Z" fill="#051F38"/>
<path d="M221.792 352.954C222.904 343.82 223.759 329.566 223.759 329.566L210.246 332.382L211.358 351.93C214.693 352.869 218.542 352.954 221.792 352.954Z" fill="#041523"/>
<path d="M192.541 364.819C191.173 368.147 215.805 361.831 220.253 360.295C220.338 360.21 220.509 360.039 220.68 359.611C215.121 361.148 198.272 364.989 192.541 364.819Z" fill="white"/>
<path d="M252.583 327.944C252.583 327.944 255.064 358.075 256.774 358.588C263.103 360.636 310.4 371.648 265.412 352.441L266.182 330.505L252.583 327.944Z" fill="#051F38"/>
<path d="M255.064 351.247C253.781 342.199 252.583 327.944 252.583 327.944L266.182 330.505L265.498 350.052C262.162 351.076 258.314 351.161 255.064 351.247Z" fill="#041523"/>
<path d="M284.57 362.599C286.024 365.928 261.222 360.039 256.774 358.588C256.603 358.588 256.518 358.331 256.347 357.904C261.906 359.441 278.84 362.941 284.57 362.599Z" fill="white"/>
<path d="M260.879 165.252C260.879 165.252 273.195 264.523 270.715 344.845C270.715 344.845 256.004 348.942 252.155 345.955C248.819 326.92 249.247 289.875 244.286 262.389C239.582 236.441 237.701 215.186 237.701 215.186L236.161 213.479C236.161 213.479 226.068 338.955 223.845 348.516C211.101 351.503 207.081 348.003 207.081 348.003C207.081 348.003 201.265 191.03 204.857 165.679C209.476 132.561 260.879 165.252 260.879 165.252Z" fill="#34CB79"/>
<path opacity="0.1" d="M263.102 185.823C261.819 173.019 260.792 165.338 260.792 165.338C260.792 165.338 209.475 132.645 204.771 165.764C204.344 168.837 204.087 173.873 203.831 180.275C207.679 182.409 255.746 189.237 263.102 185.823Z" fill="#161826"/>
<path opacity="0.1" d="M236.76 212.455C237.358 219.198 240.437 240.965 244.286 262.389C249.247 289.96 248.819 326.92 252.155 345.955C256.004 348.942 270.715 344.845 270.715 344.845C272.169 295.423 268.149 238.831 264.728 202.639C256.603 207.76 246.253 210.236 236.76 212.455Z" fill="#161826"/>
<path d="M241.122 78.4435C241.207 68.0301 241.977 54.2874 241.977 54.2874L221.45 48.6538C221.45 48.6538 222.134 67.2618 222.733 78.6145C213.41 81.7727 202.804 87.7478 202.804 87.7478L241.549 97.5637L255.32 84.2483C255.32 84.2483 248.392 80.7481 241.122 78.4435Z" fill="#FFB39F"/>
<path d="M241.122 78.4435C241.207 68.0301 241.977 54.2874 241.977 54.2874L221.45 48.6538C221.45 48.6538 222.134 67.2618 222.733 78.6145C213.41 81.7727 202.804 87.7478 202.804 87.7478L241.549 97.5637L259.853 81.8578C259.853 81.8578 248.477 77.5899 241.122 78.4435Z" fill="#E09B8D"/>
<path d="M219.654 28.9363C219.654 28.9363 225.042 11.5233 239.24 14.2548C253.438 16.9862 255.491 35.5088 257.287 47.971C259.083 60.5185 255.063 71.7858 243.944 73.1515C234.279 74.3465 217.43 72.4686 219.654 28.9363Z" fill="#FFB39F"/>
<path d="M220.338 43.5324C220.338 43.5324 219.483 41.2278 215.976 43.7885C211.528 47.0321 216.061 58.9821 221.45 57.7018C226.838 56.4214 220.338 43.5324 220.338 43.5324Z" fill="#FFB39F"/>
<path d="M215.377 18.9494C215.719 18.8641 222.391 18.3519 217.943 18.7787C222.048 23.2173 221.621 24.327 227.266 25.3512C230.259 34.5699 224.358 40.1181 224.358 40.1181L225.983 51.2146L221.706 51.6414C221.706 51.6414 221.792 43.9592 218.542 43.2763C215.292 42.5934 214.351 46.5199 214.351 46.5199C207.594 37.9841 200.752 21.254 215.377 18.9494Z" fill="#051F38"/>
<path d="M254.122 12.7183C256.859 5.97503 252.241 0 252.241 0C253.01 2.47537 252.668 4.78002 251.898 6.6579C251.385 4.78002 250.444 2.73144 248.734 0.682861C248.734 0.682861 249.247 7.5115 239.924 6.6579C230.601 5.80432 214.265 7.08468 213.581 21.5101C212.811 35.9356 226.753 25.4365 226.753 25.4365C226.753 25.4365 254.55 33.2041 258.57 10.8404L254.122 12.7183Z" fill="#051F38"/>
<path d="M240.951 37.6434C240.951 37.6434 240.694 37.6434 240.352 37.5581C239.924 37.4727 239.411 37.3874 238.813 37.302C238.47 37.2166 238.214 37.2166 237.872 37.2166C237.53 37.1313 237.188 37.1313 236.845 37.1313C236.503 37.1313 236.161 37.1313 235.733 37.1313C235.562 37.1313 235.391 37.1313 235.22 37.1313L234.707 37.2166C234.365 37.2166 234.023 37.302 233.595 37.3874C233.253 37.4727 232.911 37.5581 232.569 37.6434C232.227 37.7288 231.885 37.8995 231.543 37.9849C231.2 38.0702 230.944 38.2409 230.602 38.3263C230.345 38.4117 230.003 38.497 229.832 38.6677C229.575 38.7531 229.404 38.8385 229.233 38.9238C228.891 39.0945 228.635 39.1799 228.635 39.1799C228.635 39.1799 228.72 38.9238 228.891 38.5824C228.977 38.4117 229.062 38.1556 229.233 37.8995C229.404 37.6434 229.575 37.3874 229.832 37.1313C230.089 36.8752 230.26 36.5338 230.602 36.2777C230.944 36.0216 231.286 35.7655 231.714 35.5095C232.141 35.3388 232.569 35.0827 232.997 34.912C233.51 34.7412 233.937 34.6559 234.451 34.5705L235.22 34.4852C235.477 34.4852 235.734 34.4852 235.99 34.5705C236.247 34.5705 236.503 34.6559 236.674 34.6559C236.931 34.7412 237.102 34.7412 237.359 34.8266C237.786 34.9973 238.214 35.0827 238.556 35.3388C238.898 35.5095 239.24 35.7655 239.582 35.9363C239.839 36.107 240.096 36.3631 240.352 36.5338C240.523 36.7045 240.694 36.9606 240.865 37.0459C240.78 37.3874 240.951 37.6434 240.951 37.6434Z" fill="#051F38"/>
<path d="M255.405 37.2159C255.405 37.2159 255.234 37.1305 254.892 37.0452C254.55 36.9598 254.122 36.7891 253.694 36.6184C253.438 36.533 253.181 36.4477 252.925 36.3624C252.668 36.277 252.411 36.1916 252.155 36.1916C251.898 36.1916 251.642 36.1063 251.385 36.021C251.3 36.021 251.128 36.021 251.043 35.9356H250.701C250.444 35.8502 250.188 36.021 249.931 35.9356C249.674 36.021 249.418 36.021 249.161 36.1063C248.905 36.1917 248.648 36.277 248.392 36.3624C248.135 36.4477 247.878 36.533 247.707 36.6184C247.451 36.7038 247.194 36.7891 247.023 36.8745C246.852 36.9598 246.681 37.0452 246.51 37.0452C246.168 37.1305 245.997 37.2159 245.997 37.2159C245.997 37.2159 245.997 37.0452 246.168 36.7038C246.253 36.533 246.253 36.3623 246.424 36.1063C246.51 35.8502 246.681 35.6795 246.852 35.4234C247.023 35.1674 247.194 34.9113 247.451 34.6552C247.707 34.3991 248.049 34.2284 248.306 33.9723C248.648 33.8016 249.076 33.6309 249.418 33.4602C249.846 33.3748 250.273 33.2895 250.701 33.2895C250.957 33.2895 251.128 33.2895 251.385 33.2895C251.642 33.2895 251.813 33.3748 251.984 33.4602C252.155 33.4602 252.411 33.5456 252.582 33.6309C252.754 33.7163 252.925 33.8016 253.096 33.887C253.78 34.3138 254.293 34.7406 254.635 35.2527C254.977 35.7649 255.148 36.1917 255.319 36.533C255.405 37.0452 255.405 37.2159 255.405 37.2159Z" fill="#051F38"/>
<path d="M244.885 38.1549C245.398 39.2645 245.912 40.4595 246.425 41.5692C246.681 42.1666 246.852 42.6788 247.109 43.2763L247.793 44.9835L248.477 46.6907C248.734 47.2882 248.905 47.8002 249.162 48.3978L249.504 49.2513C249.589 49.5074 249.76 49.8489 249.846 50.1049C250.103 50.6171 250.359 51.1292 250.616 51.7268L250.872 52.4096L250.359 52.6657C249.589 53.0071 248.82 53.4339 247.964 53.7753C247.195 54.1167 246.339 54.4582 245.484 54.7142C246.168 54.1167 246.852 53.6046 247.537 53.0925C248.221 52.5803 248.991 52.0682 249.675 51.556L249.418 52.495C249.076 51.9828 248.734 51.3853 248.392 50.8732C248.05 50.361 247.793 49.7635 247.537 49.166L247.109 48.3124L246.767 47.4589C246.596 46.8614 246.339 46.2639 246.168 45.6664L245.655 43.8738C245.484 43.2763 245.398 42.6788 245.227 42.0813C245.142 40.7156 244.971 39.4352 244.885 38.1549Z" fill="#DD9078"/>
<path d="M220.081 55.2264C219.739 55.0557 219.397 54.7996 219.141 54.4582C218.884 54.2021 218.542 53.8606 218.371 53.4339C218.285 53.2632 218.2 53.0071 218.2 52.7511C218.2 52.6657 218.2 52.495 218.2 52.4096C218.2 52.3243 218.285 52.1535 218.285 52.0682C218.371 51.8121 218.542 51.6414 218.713 51.4707C218.798 51.3853 218.884 51.3 218.969 51.2146L219.226 51.0439L219.055 51.3C219.055 50.361 219.055 49.4221 218.969 48.5685C218.884 47.6296 218.798 46.6906 218.456 45.9224C218.371 45.7517 218.285 45.581 218.114 45.4956C218.029 45.4103 217.858 45.3249 217.687 45.3249C217.601 45.3249 217.515 45.3249 217.43 45.4103C217.344 45.4103 217.173 45.4956 217.088 45.4956C216.917 45.581 216.746 45.6663 216.575 45.8371C216.404 46.0078 216.232 46.0931 216.147 46.2639C216.061 46.4346 215.89 46.6053 215.805 46.8614C215.634 47.2882 215.548 47.715 215.548 48.227C215.377 47.8002 215.377 47.2882 215.463 46.776C215.463 46.5199 215.548 46.2639 215.719 46.0931C215.805 45.8371 215.976 45.6663 216.147 45.4956L216.404 45.2395L216.746 44.9835C216.831 44.8981 217.002 44.8981 217.088 44.8128C217.173 44.7274 217.344 44.7274 217.515 44.642C217.858 44.5567 218.2 44.642 218.456 44.8981C218.713 45.0688 218.884 45.3249 218.969 45.581C219.226 46.0931 219.312 46.5199 219.483 47.0321C219.568 47.5442 219.654 47.971 219.654 48.4831C219.739 49.4221 219.739 50.361 219.654 51.3853V51.556L219.483 51.6414C219.312 51.7267 219.141 51.8121 219.055 51.9828C218.969 52.0682 218.798 52.2389 218.713 52.3243C218.627 52.4096 218.627 52.495 218.627 52.5803C218.627 52.6657 218.542 52.7511 218.542 52.8364C218.542 53.0071 218.542 53.1778 218.542 53.3485C218.627 53.6899 218.798 54.0314 219.055 54.3728C219.568 54.7142 219.825 54.9703 220.081 55.2264Z" fill="#DD9078"/>
<path d="M233.509 45.7517C233.509 45.7517 233.595 45.9224 233.681 46.2638C233.766 46.4345 233.766 46.6052 233.852 46.7759C233.937 46.9467 234.023 47.2027 234.194 47.4588C234.279 47.7149 234.536 47.8856 234.621 48.1417C234.707 48.227 234.792 48.3124 234.963 48.4831C235.049 48.5685 235.135 48.6538 235.306 48.7392C235.562 48.9099 235.819 48.9953 236.075 49.0806C236.246 49.0806 236.332 49.166 236.503 49.166C236.674 49.166 236.76 49.166 236.931 49.0806L237.358 48.9099L237.786 48.6538C238.043 48.4831 238.214 48.227 238.385 47.971C238.556 47.7149 238.641 47.4588 238.812 47.2027C238.898 46.9467 238.983 46.6906 238.983 46.3491C238.983 46.0931 238.983 45.837 239.069 45.6664C239.069 45.4103 239.069 45.2396 239.069 45.0688C239.069 44.7274 239.069 44.5567 239.069 44.5567C239.069 44.5567 239.154 44.7274 239.24 45.0688C239.326 45.2396 239.326 45.4103 239.411 45.6664C239.411 45.9224 239.497 46.1784 239.497 46.4345C239.497 46.6906 239.497 47.032 239.411 47.3735C239.326 47.7149 239.24 48.0563 239.069 48.3978C238.898 48.7392 238.641 49.0806 238.299 49.3367L237.786 49.6781C237.615 49.7635 237.358 49.8489 237.187 49.9342C237.016 49.9342 236.76 50.0196 236.503 50.0196C236.332 50.0196 236.075 49.9342 235.904 49.9342C235.477 49.8489 235.135 49.5928 234.792 49.3367C234.45 49.0806 234.279 48.7392 234.108 48.4831C233.937 48.1417 233.766 47.8856 233.681 47.6295C233.595 47.3735 233.509 47.1174 233.509 46.8613C233.509 46.6052 233.509 46.4345 233.509 46.2638C233.509 45.9224 233.509 45.7517 233.509 45.7517Z" fill="#1F2733"/>
<path d="M248.991 43.1909C248.991 43.1909 249.076 43.3617 249.162 43.7031C249.247 43.8738 249.247 44.0445 249.333 44.2153C249.418 44.386 249.504 44.642 249.675 44.8981C249.76 45.1542 250.017 45.3249 250.103 45.581C250.188 45.6663 250.274 45.7517 250.445 45.9224C250.53 46.0078 250.616 46.0931 250.787 46.1785C251.043 46.3492 251.3 46.4346 251.557 46.5199C251.728 46.5199 251.813 46.6053 251.984 46.6053C252.155 46.6053 252.241 46.6053 252.412 46.5199L252.839 46.3492L253.267 46.0931C253.524 45.9224 253.695 45.6663 253.866 45.4103C254.037 45.1542 254.122 44.8981 254.293 44.642C254.379 44.386 254.465 44.1299 254.465 43.7885C254.465 43.5324 254.465 43.2763 254.55 43.1056C254.55 42.8495 254.55 42.6788 254.55 42.5081C254.55 42.1666 254.55 41.996 254.55 41.996C254.55 41.996 254.636 42.1666 254.721 42.5081C254.807 42.6788 254.807 42.8495 254.892 43.1056C254.892 43.3617 254.978 43.6177 254.978 43.8738C254.978 44.1299 254.978 44.4713 254.892 44.8128C254.807 45.1542 254.721 45.4956 254.55 45.8371C254.379 46.1785 254.122 46.5199 253.78 46.776L253.267 47.1174C253.096 47.2028 252.839 47.2882 252.668 47.3735C252.497 47.3735 252.241 47.4589 251.984 47.4589C251.813 47.4589 251.557 47.3735 251.385 47.3735C250.958 47.2882 250.616 47.0321 250.274 46.776C249.931 46.5199 249.76 46.1785 249.589 45.9224C249.418 45.581 249.247 45.3249 249.162 45.0688C249.076 44.8128 248.991 44.5567 248.991 44.3006C248.991 44.0445 248.991 43.8738 248.991 43.7031C248.991 43.3617 248.991 43.1909 248.991 43.1909Z" fill="#1F2733"/>
<path d="M234.857 57.8214C234.857 57.8214 234.771 57.8214 234.857 57.9068C234.942 57.9921 235.113 58.0775 235.284 58.1629C235.626 58.4189 236.225 58.675 236.909 59.0164C237.593 59.3579 238.449 59.6993 239.304 59.9553C239.732 60.126 240.245 60.2114 240.672 60.2967C241.1 60.3821 241.613 60.4675 242.126 60.5528C243.067 60.6382 244.008 60.7235 244.949 60.6382C245.889 60.5528 246.659 60.3821 247.429 60.126C248.113 59.87 248.712 59.6993 249.139 59.5286C249.567 59.3579 249.824 59.2725 249.824 59.2725C249.824 59.2725 249.653 59.5286 249.31 59.7846C248.968 60.126 248.455 60.5528 247.771 60.9796C247.087 61.4064 246.146 61.8332 245.12 62.0039C244.093 62.26 242.982 62.26 241.87 62.1746C241.357 62.0893 240.758 62.0039 240.245 61.8332C239.732 61.6625 239.218 61.4918 238.791 61.2357C237.85 60.8089 237.08 60.2968 236.482 59.7846C235.883 59.2725 235.37 58.7604 235.113 58.3336C234.942 58.1629 234.857 57.9921 234.857 57.8214C234.771 57.9068 234.771 57.8214 234.857 57.8214Z" fill="#DD9078"/>
<path d="M248.221 78.1873C248.221 78.1873 270.116 75.8827 272.938 92.6132C275.761 109.429 275.504 113.952 275.504 113.952L254.123 110.794L248.221 78.1873Z" fill="#6633CC"/>
<path d="M266.694 91.6737C265.411 81.0035 254.549 78.6988 248.22 78.1865C245.397 82.1132 241.463 84.9301 236.075 85.1011C229.916 85.2714 224.271 83.1378 221.278 78.4427C211.699 79.5524 202.206 82.2842 200.067 88.7709C195.534 102.428 199.469 177.543 199.469 177.543C199.469 177.543 237.785 184.116 269.26 178.141C269.175 178.226 268.405 105.928 266.694 91.6737Z" fill="#6633CC"/>
<path opacity="0.2" d="M197.844 125.305C198.015 150.059 199.469 177.629 199.469 177.629C199.469 177.629 237.786 184.202 269.261 178.227C269.261 178.227 268.662 123.342 267.379 99.7831C244.201 108.404 221.022 116.94 197.844 125.305Z" fill="#352C38"/>
<path d="M221.449 145.108C221.449 145.108 220.594 142.633 224.528 141.011C228.463 139.389 269.004 128.804 271.57 129.146C274.135 129.488 305.524 133.243 306.037 134.951C306.55 136.658 268.49 148.949 268.49 148.949L221.449 145.108Z" fill="#E1EDFF"/>
<path d="M270.629 152.193C270.629 152.193 226.239 152.022 222.818 148.01C219.397 143.999 219.311 141.096 238.727 144.51C258.142 147.925 269.346 147.412 269.346 147.412C269.346 147.412 304.926 130.854 306.123 134.865C307.235 138.962 310.998 137.938 270.629 152.193Z" fill="#C0D5FF"/>
<path d="M306.038 134.951C304.926 130.939 269.261 147.498 269.261 147.498C269.261 147.498 269.175 147.498 268.919 147.498C269.688 149.034 270.287 150.485 270.971 152.107C310.998 137.938 307.235 138.962 306.038 134.951Z" fill="#B1C5E8"/>
<path d="M220.166 135.974C220.166 135.974 219.311 133.499 223.245 131.877C227.179 130.255 267.72 119.671 270.286 120.013C272.852 120.354 304.241 124.11 304.754 125.817C305.268 127.524 267.207 139.816 267.207 139.816L220.166 135.974Z" fill="#E1EDFF"/>
<path d="M269.346 143.145C269.346 143.145 224.956 142.974 221.535 138.962C218.114 134.951 218.028 132.048 237.443 135.463C256.859 138.877 268.063 138.365 268.063 138.365C268.063 138.365 303.643 121.805 304.84 125.817C305.867 129.829 309.715 128.804 269.346 143.145Z" fill="#C0D5FF"/>
<path d="M304.755 125.902C303.643 121.891 267.978 138.45 267.978 138.45C267.978 138.45 267.892 138.45 267.636 138.45C268.405 139.987 269.004 141.438 269.688 143.059C309.63 128.804 305.866 129.829 304.755 125.902Z" fill="#B1C5E8"/>
<path d="M219.995 128.548C219.995 128.548 219.225 126.415 222.988 124.964C226.752 123.513 266.01 114.208 268.49 114.55C270.971 114.892 301.333 118.22 301.846 119.671C302.36 121.122 265.497 132.048 265.497 132.048L219.995 128.548Z" fill="#E1EDFF"/>
<path d="M267.55 134.865C267.55 134.865 224.614 134.694 221.279 131.195C217.943 127.695 217.943 125.134 236.674 128.122C255.405 131.109 266.267 130.683 266.267 130.683C266.267 130.683 300.735 116.086 301.847 119.671C302.959 123.171 306.636 122.232 267.55 134.865Z" fill="#C0D5FF"/>
<path d="M301.847 119.671C300.735 116.172 266.267 130.683 266.267 130.683C266.267 130.683 266.182 130.683 265.925 130.683C266.609 131.963 267.294 133.328 267.892 134.694C306.636 122.232 302.959 123.171 301.847 119.671Z" fill="#B1C5E8"/>
<path d="M221.193 118.562C221.193 118.562 220.508 116.428 224.357 115.062C228.206 113.782 267.721 105.929 270.201 106.356C272.681 106.697 302.873 111.221 303.301 112.672C303.728 114.123 266.523 123.598 266.523 123.598L221.193 118.562Z" fill="white"/>
<path d="M268.491 126.67C268.491 126.67 225.555 124.878 222.391 121.292C219.226 117.622 219.226 115.147 237.871 118.817C256.517 122.487 267.379 122.487 267.379 122.487C267.379 122.487 302.36 109.257 303.301 112.756C304.327 116.256 308.005 115.488 268.491 126.67Z" fill="#C0D5FF"/>
<path d="M303.301 112.757C302.36 109.173 267.379 122.488 267.379 122.488C267.379 122.488 267.294 122.488 267.037 122.488C267.721 123.854 268.32 125.22 268.833 126.586C307.919 115.489 304.242 116.257 303.301 112.757Z" fill="#B1C5E8"/>
<path d="M198.87 120.183L219.996 115.062C219.996 115.062 224.529 145.791 225.726 147.498C226.924 149.205 262.248 150.913 262.248 150.913L272.511 151.51C272.511 151.51 229.147 169.691 216.66 162.35C204.002 154.838 198.87 120.183 198.87 120.183Z" fill="#FFB39F"/>
<path d="M200.923 123.854C207.423 121.891 213.752 119.501 220.423 118.05C220.167 116.172 219.996 115.062 219.996 115.062L198.87 120.183C198.87 120.183 199.127 121.72 199.554 124.281C200.068 124.11 200.495 123.939 200.923 123.854Z" fill="#E09B8D"/>
<path d="M268.577 154.327C268.577 154.327 284.656 150.059 284.656 146.815C284.656 143.572 278.84 131.877 282.945 147.498C282.945 147.498 274.393 126.33 281.235 148.522C281.235 148.522 274.564 131.28 279.097 148.949C279.097 148.949 272.254 136.999 277.215 149.803L271.057 152.107L256.26 151.936L248.392 159.619L268.577 154.327Z" fill="#FFB39F"/>
<path d="M306.209 138.706C306.209 138.706 297.656 117.537 304.498 139.731C304.498 139.731 297.827 122.488 302.36 140.157C302.36 140.157 295.518 128.207 299.88 141.096L295.176 143.315C296.886 143.486 299.11 143.401 300.906 142.803C306.38 141.693 307.919 139.816 307.919 138.109C307.919 134.865 302.103 123.171 306.209 138.706Z" fill="#FFB39F"/>
<path d="M328.019 363.367C328.019 366.44 325.539 369.001 322.46 369.086C319.38 369.086 316.815 366.611 316.729 363.538L316.472 345.442C316.472 342.369 318.953 339.809 322.032 339.723C325.111 339.723 327.677 342.198 327.762 345.271L328.019 363.367Z" fill="#091E1D"/>
<path d="M249.247 364.307C249.247 367.38 246.767 369.94 243.688 370.026C240.609 370.026 238.043 367.551 237.957 364.478L237.701 346.382C237.701 343.309 240.181 340.748 243.26 340.663C246.339 340.663 248.905 343.139 248.991 346.211L249.247 364.307Z" fill="#091E1D"/>
<path d="M321.69 350.478C321.776 357.478 316.131 363.197 309.117 363.282L256.432 363.879C249.419 363.965 243.688 358.331 243.603 351.332L237.958 231.661C237.872 224.662 243.517 218.943 250.53 218.857L311.683 218.089C318.697 218.003 324.427 223.637 324.513 230.636L321.69 350.478Z" fill="#322153"/>
<path d="M324.17 242.671L324.427 230.807C324.342 223.808 318.611 218.174 311.598 218.259L250.445 219.028C243.431 219.113 237.786 224.832 237.872 231.832L238.471 243.696L324.17 242.671Z" fill="#1C0C3B"/>
<path d="M334.605 227.82C334.605 229.782 333.066 231.319 331.098 231.404L231.201 232.599C229.233 232.599 227.694 231.063 227.608 229.1L227.437 216.467C227.437 214.504 228.977 212.968 230.944 212.882L330.842 211.687C332.809 211.687 334.349 213.224 334.434 215.186L334.605 227.82Z" fill="#322153"/>
<path d="M281.577 262.901L293.209 255.902L290.386 263.157L281.577 262.901Z" fill="white"/>
<path d="M277.215 251.891C277.215 251.891 278.156 251.891 279.61 254.109C281.063 256.329 284.314 262.304 284.314 262.304L290.215 259.658L291.584 257.353C291.584 257.353 289.018 252.232 286.965 251.891H277.215Z" fill="white"/>
<path d="M273.965 253.427C273.965 253.427 275.761 251.463 277.215 252.488C278.669 253.513 281.235 257.781 281.235 257.781L277.044 265.121L269.518 260.939L273.965 253.427Z" fill="white"/>
<path d="M286.88 272.035L287.478 285.521L282.432 279.632L286.88 272.035Z" fill="white"/>
<path d="M298.682 273.401C298.682 273.401 298.255 274.254 295.603 274.51C292.952 274.766 286.11 274.766 286.11 274.766L285.597 281.253L286.965 283.558C286.965 283.558 292.695 283.814 293.978 282.107L298.682 273.401Z" fill="white"/>
<path d="M298.768 269.815C298.768 269.815 299.709 272.291 298.084 273.144C296.544 273.913 291.498 274.083 291.498 274.083L286.965 266.913L294.235 262.219L298.768 269.815Z" fill="white"/>
<path d="M276.702 271.864L264.727 265.548L272.34 264.182L276.702 271.864Z" fill="white"/>
<path d="M269.518 281.339C269.518 281.339 269.005 280.57 270.117 278.181C271.228 275.79 274.65 269.901 274.65 269.901L269.347 266.23L266.695 266.316C266.695 266.316 263.617 271.181 264.386 273.059L269.518 281.339Z" fill="white"/>
<path d="M272.597 283.216C272.597 283.216 269.945 282.704 270.116 280.997C270.202 279.205 272.597 274.852 272.597 274.852L281.064 274.595L281.406 283.216H272.597Z" fill="white"/>
</g>
<defs>
<linearGradient id="paint0_linear" x1="273.548" y1="113.639" x2="642.597" y2="482.688" gradientUnits="userSpaceOnUse">
<stop stop-color="white"/>
<stop offset="1" stop-color="white" stop-opacity="0"/>
</linearGradient>
<clipPath id="clip0">
<rect width="650" height="488.61" fill="white"/>
</clipPath>
</defs>
</svg>
