<svg width="160" height="39" viewBox="0 0 160 39" fill="none" xmlns="http://www.w3.org/2000/svg">
<path d="M63.6047 29.8872V10.2969H76.8345V14.0001H68.0147V17.8447H75.8451V21.4631H68.0147V26.184H77.4847V29.8872H63.6047Z" fill="#322153"/>
<path d="M79.4275 22.4525C79.4275 21.3783 79.5971 20.37 79.9364 19.4277C80.2944 18.4666 80.8033 17.6374 81.4629 16.9401C82.1225 16.2239 82.9234 15.6586 83.8657 15.2439C84.808 14.8293 85.8822 14.622 87.0884 14.622C87.8799 14.622 88.6055 14.6974 89.2651 14.8482C89.9247 14.9801 90.5654 15.178 91.1873 15.4418L90.311 18.8058C89.9152 18.655 89.4818 18.5231 89.0106 18.41C88.5395 18.297 88.0118 18.2404 87.4276 18.2404C86.1838 18.2404 85.2509 18.6268 84.629 19.3995C84.0259 20.1721 83.7244 21.1898 83.7244 22.4525C83.7244 23.7905 84.0071 24.8271 84.5724 25.562C85.1567 26.297 86.1649 26.6645 87.5972 26.6645C88.106 26.6645 88.6526 26.6174 89.2368 26.5232C89.821 26.429 90.3581 26.2782 90.8481 26.0709L91.4418 29.5197C90.9518 29.727 90.3393 29.906 89.6043 30.0568C88.8693 30.2076 88.0589 30.2829 87.1732 30.2829C85.8163 30.2829 84.6478 30.0851 83.6678 29.6893C82.6879 29.2747 81.8775 28.7187 81.2367 28.0214C80.6148 27.3241 80.1531 26.5043 79.8516 25.562C79.5689 24.6009 79.4275 23.5644 79.4275 22.4525Z" fill="#322153"/>
<path d="M107.459 22.4242C107.459 23.5927 107.29 24.6669 106.95 25.6469C106.611 26.608 106.121 27.4372 105.48 28.1345C104.84 28.813 104.067 29.3406 103.162 29.7176C102.277 30.0945 101.278 30.2829 100.166 30.2829C99.0727 30.2829 98.0739 30.0945 97.1693 29.7176C96.2835 29.3406 95.5203 28.813 94.8795 28.1345C94.2387 27.4372 93.7393 26.608 93.3813 25.6469C93.0232 24.6669 92.8442 23.5927 92.8442 22.4242C92.8442 21.2558 93.0232 20.191 93.3813 19.2298C93.7582 18.2687 94.267 17.4489 94.9078 16.7705C95.5674 16.092 96.3401 15.5643 97.2258 15.1874C98.1304 14.8105 99.1104 14.622 100.166 14.622C101.24 14.622 102.22 14.8105 103.106 15.1874C104.01 15.5643 104.783 16.092 105.424 16.7705C106.065 17.4489 106.564 18.2687 106.922 19.2298C107.28 20.191 107.459 21.2558 107.459 22.4242ZM103.162 22.4242C103.162 21.1238 102.898 20.1062 102.371 19.3712C101.862 18.6174 101.127 18.2404 100.166 18.2404C99.2046 18.2404 98.4602 18.6174 97.9325 19.3712C97.4049 20.1062 97.141 21.1238 97.141 22.4242C97.141 23.7246 97.4049 24.7611 97.9325 25.5338C98.4602 26.2876 99.2046 26.6645 100.166 26.6645C101.127 26.6645 101.862 26.2876 102.371 25.5338C102.898 24.7611 103.162 23.7246 103.162 22.4242Z" fill="#322153"/>
<path d="M116.658 30.1699C115.433 30.151 114.435 30.0191 113.662 29.7741C112.908 29.5291 112.305 29.1899 111.853 28.7564C111.419 28.3041 111.118 27.767 110.948 27.1451C110.797 26.5043 110.722 25.7882 110.722 24.9967V8.62905L114.934 7.9506V24.1486C114.934 24.5255 114.962 24.8648 115.019 25.1663C115.075 25.4678 115.179 25.7222 115.33 25.9295C115.499 26.1368 115.735 26.3065 116.036 26.4384C116.338 26.5703 116.743 26.6551 117.252 26.6928L116.658 30.1699Z" fill="#322153"/>
<path d="M118.96 22.5656C118.96 21.2463 119.158 20.0967 119.553 19.1168C119.968 18.1179 120.505 17.2887 121.165 16.6291C121.824 15.9695 122.578 15.4701 123.426 15.1309C124.293 14.7916 125.179 14.622 126.083 14.622C128.194 14.622 129.862 15.2722 131.087 16.5726C132.312 17.8541 132.924 19.7481 132.924 22.2546C132.924 22.4996 132.915 22.7729 132.896 23.0744C132.877 23.3571 132.858 23.6115 132.84 23.8377H123.285C123.379 24.7046 123.784 25.3924 124.5 25.9013C125.216 26.4101 126.178 26.6645 127.384 26.6645C128.156 26.6645 128.91 26.5986 129.645 26.4666C130.399 26.3159 131.012 26.1368 131.483 25.9295L132.048 29.3501C131.822 29.4631 131.52 29.5762 131.144 29.6893C130.767 29.8024 130.343 29.8966 129.871 29.972C129.419 30.0662 128.929 30.1416 128.401 30.1981C127.874 30.2547 127.346 30.2829 126.818 30.2829C125.48 30.2829 124.312 30.0851 123.313 29.6893C122.333 29.2935 121.513 28.7564 120.854 28.078C120.213 27.3807 119.732 26.5609 119.412 25.6186C119.11 24.6763 118.96 23.6586 118.96 22.5656ZM128.854 20.9542C128.835 20.5962 128.769 20.2475 128.656 19.9083C128.562 19.5691 128.401 19.2675 128.175 19.0037C127.968 18.7398 127.695 18.5231 127.355 18.3535C127.035 18.1839 126.63 18.0991 126.14 18.0991C125.669 18.0991 125.264 18.1839 124.924 18.3535C124.585 18.5043 124.302 18.7116 124.076 18.9754C123.85 19.2393 123.671 19.5502 123.539 19.9083C123.426 20.2475 123.341 20.5962 123.285 20.9542H128.854Z" fill="#322153"/>
<path d="M136.034 11.3146L140.246 10.6361V15.0178H145.306V18.5231H140.246V23.7528C140.246 24.6386 140.396 25.3453 140.698 25.873C141.018 26.4007 141.65 26.6645 142.592 26.6645C143.044 26.6645 143.506 26.6268 143.977 26.5515C144.467 26.4572 144.91 26.3347 145.306 26.184L145.899 29.4631C145.391 29.6704 144.825 29.8495 144.203 30.0002C143.581 30.151 142.818 30.2264 141.913 30.2264C140.764 30.2264 139.812 30.0756 139.058 29.7741C138.304 29.4537 137.701 29.0203 137.249 28.4737C136.797 27.9084 136.476 27.2299 136.288 26.4384C136.118 25.6469 136.034 24.7705 136.034 23.8094V11.3146Z" fill="#322153"/>
<path d="M153.866 26.9472C154.28 26.9472 154.676 26.9378 155.053 26.9189C155.43 26.9001 155.731 26.8718 155.958 26.8341V23.6398C155.788 23.6021 155.533 23.5644 155.194 23.5267C154.855 23.489 154.544 23.4702 154.261 23.4702C153.866 23.4702 153.489 23.4984 153.131 23.555C152.791 23.5927 152.49 23.6775 152.226 23.8094C151.962 23.9413 151.755 24.1203 151.604 24.3465C151.453 24.5726 151.378 24.8553 151.378 25.1946C151.378 25.8542 151.595 26.3159 152.028 26.5797C152.48 26.8247 153.093 26.9472 153.866 26.9472ZM153.526 14.622C154.77 14.622 155.807 14.7634 156.636 15.0461C157.465 15.3287 158.125 15.7339 158.615 16.2616C159.124 16.7893 159.482 17.4301 159.689 18.1839C159.896 18.9377 160 19.7764 160 20.6998V29.4631C159.397 29.5951 158.558 29.7458 157.484 29.9154C156.41 30.1039 155.109 30.1981 153.583 30.1981C152.622 30.1981 151.745 30.1133 150.954 29.9437C150.181 29.7741 149.512 29.5008 148.947 29.1239C148.381 28.7282 147.948 28.2193 147.647 27.5974C147.345 26.9755 147.194 26.2122 147.194 25.3076C147.194 24.4407 147.364 23.7057 147.703 23.1027C148.061 22.4996 148.532 22.019 149.116 21.661C149.701 21.3029 150.37 21.0485 151.124 20.8977C151.877 20.7281 152.66 20.6433 153.47 20.6433C154.016 20.6433 154.497 20.6715 154.912 20.7281C155.345 20.7658 155.694 20.8223 155.958 20.8977V20.5019C155.958 19.7858 155.741 19.211 155.307 18.7775C154.874 18.3441 154.12 18.1274 153.046 18.1274C152.33 18.1274 151.623 18.1839 150.926 18.297C150.228 18.3912 149.625 18.5325 149.116 18.721L148.579 15.3287C148.824 15.2534 149.126 15.178 149.484 15.1026C149.861 15.0084 150.266 14.933 150.7 14.8764C151.133 14.8011 151.585 14.7445 152.056 14.7068C152.546 14.6503 153.036 14.622 153.526 14.622Z" fill="#322153"/>
<path d="M12.9345 1.63403L8.89305 9.35179C8.63209 9.85011 8.80393 10.4731 9.27956 10.7533L15.6078 14.4809C16.09 14.7649 16.703 14.5903 16.9772 14.0907L24.7124 0.000644684H15.5831C14.478 0.000644684 13.4616 0.627442 12.9345 1.63403V1.63403Z" fill="#29A361"/>
<path d="M24.7123 0L16.9774 14.0902C16.7026 14.5897 16.09 14.7648 15.608 14.481L13.9563 13.5084C14.359 13.5756 14.7779 13.3837 14.9912 12.9947L22.1264 0H24.7123Z" fill="#248F55"/>
<path d="M33.176 7.47295L30.3885 1.72183C29.8771 0.666665 28.8351 0.000644684 27.6957 0.000644684H19.6362L25.8243 10.8806C25.804 10.89 25.7836 10.8994 25.7633 10.9089C25.3741 11.0905 25.39 11.6691 25.7885 11.8277L31.1319 13.9543C31.3795 14.0528 31.6573 13.9247 31.7524 13.6681L33.8122 8.10927C33.9645 7.69807 33.5646 7.30129 33.176 7.47295V7.47295Z" fill="#34CB79"/>
<path d="M33.8124 8.10871L31.752 13.6675C31.6573 13.9248 31.3791 14.053 31.1318 13.954L29.515 13.3103L31.4423 8.10871C31.5519 7.81373 31.3769 7.52646 31.1258 7.4511C30.8867 7.37927 30.6826 7.21697 30.5708 6.98643L28.0185 1.72153C27.5075 0.666707 26.4658 0 25.3259 0H27.696C28.835 0 29.8767 0.666707 30.3886 1.72153L33.176 7.47308C33.5651 7.30151 33.9643 7.6976 33.8124 8.10871Z" fill="#2FB86E"/>
<path d="M27.7912 29.6462C27.7161 29.327 27.3186 29.1902 27.0759 29.4415L22.8996 33.7696C22.733 33.9422 22.733 34.2221 22.8996 34.3947L27.0921 38.7394C27.333 38.9891 27.7265 38.8558 27.8056 38.5419H33.9709C35.1059 38.5419 36.1447 37.8809 36.6583 36.832L40.1762 29.6462H27.7912V29.6462Z" fill="#29A361"/>
<path d="M32.9957 29.6463L34.9948 32.7811C35.4467 33.4898 35.4967 34.3954 35.1258 35.1529L34.3036 36.8321C33.7908 37.8807 32.7516 38.5421 31.6169 38.5421H33.9709C35.1056 38.5421 36.1448 37.8807 36.6584 36.8321L40.1761 29.6464H32.9957V29.6463Z" fill="#248F55"/>
<path d="M19.3776 37.7158V30.067C19.3776 29.4922 18.9279 29.026 18.3731 29.026H1.82666L6.08487 37.1276C6.61267 38.1318 7.62778 38.7567 8.73117 38.7567H18.3731C18.9278 38.7568 19.3776 38.2908 19.3776 37.7158Z" fill="#29A361"/>
<path d="M8.84406 29.0268L5.16939 35.3867L1.82666 29.0268H8.84406Z" fill="#248F55"/>
<path d="M19.3774 30.0672V37.7162C19.3774 38.2909 18.9278 38.7569 18.3732 38.7569H15.7378C16.2923 38.7569 16.742 38.2909 16.742 37.7162V30.0672C16.742 29.4925 16.2923 29.0266 15.7378 29.0266H18.3732C18.9278 29.0265 19.3774 29.4925 19.3774 30.0672Z" fill="#248F55"/>
<path d="M11.294 22.2675L10.5509 16.4725C10.5142 16.1862 10.2605 15.985 9.98429 16.023L4.37092 16.796C3.94821 16.8542 3.79069 17.3871 4.08022 17.6835L0.537568 22.9752C-0.111979 23.9454 -0.177903 25.2122 0.367127 26.2492L4.22226 33.5839L10.4819 22.7481C10.4841 22.7498 10.4863 22.7516 10.4885 22.7534C10.8458 23.0344 11.353 22.7283 11.294 22.2675Z" fill="#34CB79"/>
<path d="M10.488 22.7534C10.4863 22.7515 10.4838 22.7498 10.4821 22.748L4.22223 33.5836L2.93481 31.1344L8.02982 22.3134L8.17111 22.0687C8.24838 21.935 8.39936 21.8772 8.54702 21.9069C8.54777 21.9071 8.54852 21.9072 8.54926 21.9074C8.86339 21.9654 9.18564 21.6942 9.13736 21.3219L8.48466 16.2291L9.98368 16.0231C10.2601 15.9851 10.5144 16.1867 10.5511 16.4722L11.2942 22.268C11.3532 22.7285 10.8455 23.0344 10.488 22.7534V22.7534Z" fill="#2FB86E"/>
<path d="M41.8697 22.577L37.0238 15.3002C36.7265 14.8538 36.1483 14.7188 35.695 14.9898L29.3798 18.7665C28.8786 19.0662 28.7248 19.7418 29.0439 20.2421L37.9465 34.2009L42.077 25.7637C42.5769 24.7425 42.4974 23.5195 41.8697 22.577V22.577Z" fill="#34CB79"/>
<path d="M42.0772 25.7639L37.9461 34.2007L36.5606 32.0273L39.627 25.7638C40.1269 24.7426 40.0476 23.5198 39.4197 22.5772L34.7451 15.5587L35.6955 14.9902C36.1486 14.7187 36.7271 14.854 37.024 15.3005L41.87 22.5773C42.4979 23.5199 42.5772 24.7427 42.0772 25.7639V25.7639Z" fill="#2FB86E"/>
</svg>
